<svg version="1.1" id="Layer_1" xmlns="http://www.w3.org/2000/svg" xmlns:xlink="http://www.w3.org/1999/xlink" x="0px" y="0px"
	 width="100%" viewBox="0 0 400 400" enable-background="new 0 0 400 400" xml:space="preserve">
<path fill="#FBFBFB" opacity="1.000000" stroke="none"
	d="
	M244.048981,112.993195
	C243.954102,124.816582 243.610443,136.644394 243.820374,148.462372
	C244.168961,168.084747 239.035538,185.948502 226.956192,201.459137
	C218.953018,211.735733 210.224243,221.444229 201.956680,231.518982
	C196.079575,238.680786 190.435135,246.033356 184.677475,253.293350
	C172.318451,268.877167 162.672943,285.953857 157.202545,305.128418
	C155.298706,311.801636 154.655365,318.834473 153.392334,325.950989
	C153.401367,325.944122 153.146179,326.307373 152.892715,326.306152
	C134.585632,326.218964 116.265434,326.464935 97.978798,325.795715
	C91.440399,325.556458 85.908882,320.983948 82.945442,315.382538
	C80.009277,309.832611 77.396233,303.285461 77.355705,297.157745
	C76.952293,236.172745 76.807610,175.181564 77.298378,114.197830
	C77.444130,96.086456 88.354301,85.694115 105.124199,85.402382
	C145.603302,84.698196 186.103012,85.177856 226.594406,85.191780
	C226.908051,85.191887 227.221619,85.353386 228.346146,85.662270
	C226.920395,93.167320 225.573746,100.758461 223.999939,108.302216
	C223.336090,111.484184 220.669342,111.356430 218.060150,111.353218
	C182.901306,111.309959 147.742416,111.332352 112.583542,111.312515
	C104.021843,111.307678 104.008644,111.264519 104.006310,119.923355
	C103.990631,178.078308 103.978943,236.233261 103.972267,294.388214
	C103.971504,301.032928 104.057365,301.103394 110.680481,301.104340
	C123.978027,301.106232 137.275574,301.104889 151.112381,301.104889
	C151.112381,292.002258 150.893784,283.222290 151.165039,274.457458
	C151.545609,262.160675 151.974960,249.849533 152.970932,237.592255
	C153.910156,226.033386 159.675659,216.262360 165.996140,206.862473
	C175.710541,192.415085 187.708206,179.892578 199.254807,166.952209
	C207.484436,157.729233 215.125336,147.879288 222.134048,137.693375
	C231.617706,123.910545 238.212769,108.769485 239.819992,91.816750
	C240.022095,89.684921 240.619827,87.590599 241.073532,85.278717
	C260.020203,85.278717 278.910370,84.165764 297.602203,85.613609
	C314.001709,86.883896 323.338013,96.214424 323.522003,114.675652
	C324.128143,175.490585 323.924011,236.315613 323.671570,297.135284
	C323.624512,308.467682 319.067963,318.432678 308.421509,323.864349
	C304.489777,325.870270 299.474518,326.463470 294.948303,326.482452
	C252.457870,326.660797 209.966354,326.575287 167.475143,326.554657
	C167.158066,326.554504 166.841049,326.396210 165.272491,325.978363
	C167.167358,318.413177 168.878952,310.751251 171.179001,303.270264
	C171.532974,302.119049 174.592148,301.191620 176.403397,301.186005
	C214.062149,301.069031 251.721390,301.100220 289.380524,301.102417
	C296.875092,301.102844 296.926056,301.056915 296.926117,293.629852
	C296.926575,235.141586 296.926331,176.653320 296.923096,118.165054
	C296.922760,112.077141 296.525177,111.580154 290.435516,111.542068
	C275.606995,111.449310 260.777893,111.457680 245.138916,111.531952
	C244.235550,112.090118 244.142258,112.541656 244.048981,112.993195
z"/>
</svg>
